<svg width="48.333374" height="29.000000" viewBox="0 0 48.3334 29" fill="none" xmlns="http://www.w3.org/2000/svg" xmlns:xlink="http://www.w3.org/1999/xlink">
	<desc>
			Created with Pixso.
	</desc>
	<defs/>
	<path id="Vector" d="M48.33 14.5C48.33 22.45 41.86 29 33.83 29C25.87 29 19.33 22.45 19.33 14.5C19.33 6.54 25.8 0 33.75 0C41.86 0 48.33 6.54 48.33 14.5Z" fill="#808080" fill-opacity="1.000000" fill-rule="evenodd"/>
	<path id="Vector" d="M28.92 14.57C28.92 13.53 28.77 12.49 28.62 11.52L19.7 11.52C19.77 11 19.92 10.55 20.07 9.96L28.03 9.96C27.88 9.44 27.66 8.92 27.43 8.4L20.67 8.4C20.89 7.88 21.19 7.43 21.48 6.84L26.62 6.84C26.32 6.32 25.95 5.8 25.5 5.27L22.67 5.27C23.12 4.75 23.57 4.31 24.16 3.79C21.63 1.41 18.21 0 14.42 0C6.54 0.22 0 6.54 0 14.5C0 22.45 6.46 29 14.5 29C18.29 29 21.63 27.51 24.24 25.2C24.76 24.76 25.2 24.24 25.72 23.64L22.75 23.64C22.38 23.2 22.01 22.67 21.71 22.15L26.76 22.15C27.06 21.71 27.36 21.19 27.58 20.59L20.82 20.59C20.59 20.15 20.37 19.63 20.22 19.03L28.18 19.03C28.62 17.69 28.92 16.21 28.92 14.57Z" fill="#686868" fill-opacity="1.000000" fill-rule="evenodd"/>
	<path id="Vector" d="M19.63 18.21L19.85 16.87C19.78 16.87 19.63 16.95 19.48 16.95C18.96 16.95 18.88 16.65 18.96 16.5L19.41 13.83L20.22 13.83L20.45 12.34L19.7 12.34L19.85 11.45L18.29 11.45C18.29 11.45 17.4 16.5 17.4 17.1C17.4 17.99 17.92 18.44 18.66 18.44C19.11 18.44 19.48 18.29 19.63 18.21Z" fill="#FFFFFF" fill-opacity="1.000000" fill-rule="nonzero"/>
	<path id="Vector" d="M20.15 15.76C20.15 17.92 21.64 18.44 22.83 18.44C23.94 18.44 24.46 18.21 24.46 18.21L24.76 16.73C24.76 16.73 23.94 17.1 23.12 17.1C21.41 17.1 21.71 15.83 21.71 15.83L24.83 15.83C24.83 15.83 25.06 14.87 25.06 14.42C25.06 13.45 24.54 12.19 22.83 12.19C21.34 12.12 20.15 13.83 20.15 15.76ZM22.83 13.53C23.64 13.53 23.49 14.5 23.49 14.57L21.78 14.57C21.86 14.5 22.01 13.53 22.83 13.53Z" fill="#FFFFFF" fill-opacity="1.000000" fill-rule="nonzero"/>
	<path id="Vector" d="M32.56 18.21L32.86 16.5C32.86 16.5 32.12 16.87 31.52 16.87C30.48 16.87 29.96 16.06 29.96 15.09C29.96 13.23 30.85 12.26 31.97 12.26C32.71 12.26 33.38 12.71 33.38 12.71L33.61 11.07C33.61 11.07 32.71 10.7 31.82 10.7C30.04 10.7 28.33 12.26 28.33 15.16C28.33 17.1 29.22 18.36 31.08 18.36C31.75 18.44 32.56 18.21 32.56 18.21Z" fill="#FFFFFF" fill-opacity="1.000000" fill-rule="nonzero"/>
	<path id="Vector" d="M11.22 12.12C10.18 12.12 9.37 12.41 9.37 12.41L9.14 13.75C9.14 13.75 9.81 13.45 10.85 13.45C11.37 13.45 11.82 13.53 11.82 13.97C11.82 14.27 11.74 14.35 11.74 14.35L11.08 14.35C9.74 14.35 8.32 14.87 8.32 16.65C8.32 18.06 9.22 18.36 9.81 18.36C10.85 18.36 11.37 17.69 11.45 17.69L11.37 18.29L12.64 18.29L13.23 14.05C13.23 12.19 11.74 12.12 11.22 12.12ZM11.52 15.54C11.52 15.76 11.37 17.02 10.48 17.02C10.03 17.02 9.89 16.65 9.89 16.43C9.89 16.06 10.11 15.54 11.3 15.54C11.45 15.54 11.52 15.54 11.52 15.54Z" fill="#FFFFFF" fill-opacity="1.000000" fill-rule="nonzero"/>
	<path id="Vector" d="M14.72 18.36C15.09 18.36 17.02 18.44 17.02 16.35C17.02 14.42 15.17 14.79 15.17 14.05C15.17 13.68 15.46 13.53 15.98 13.53C16.21 13.53 17.02 13.6 17.02 13.6L17.25 12.19C17.25 12.19 16.73 12.04 15.76 12.04C14.64 12.04 13.46 12.49 13.46 14.05C13.46 15.83 15.39 15.68 15.39 16.35C15.39 16.8 14.87 16.87 14.5 16.87C13.83 16.87 13.08 16.65 13.08 16.65L12.86 18.06C13.01 18.21 13.46 18.36 14.72 18.36Z" fill="#FFFFFF" fill-opacity="1.000000" fill-rule="nonzero"/>
	<path id="Vector" d="M45.35 10.93L45.05 13.01C45.05 13.01 44.46 12.26 43.57 12.26C42.15 12.26 40.96 13.97 40.96 15.98C40.96 17.25 41.56 18.51 42.9 18.51C43.79 18.51 44.39 17.92 44.39 17.92L44.31 18.44L45.87 18.44L46.99 11.07L45.35 10.93ZM44.61 14.94C44.61 15.76 44.24 16.87 43.34 16.87C42.82 16.87 42.53 16.43 42.53 15.61C42.53 14.35 43.05 13.6 43.79 13.6C44.31 13.68 44.61 14.05 44.61 14.94Z" fill="#FFFFFF" fill-opacity="1.000000" fill-rule="nonzero"/>
	<path id="Vector" d="M2.82 18.29L3.71 12.78L3.86 18.29L4.9 18.29L6.91 12.78L6.09 18.29L7.73 18.29L8.99 10.93L6.46 10.93L4.9 15.46L4.83 10.93L2.6 10.93L1.33 18.29L2.82 18.29Z" fill="#FFFFFF" fill-opacity="1.000000" fill-rule="nonzero"/>
	<path id="Vector" d="M26.62 18.29C27.06 15.76 27.14 13.68 28.25 14.05C28.4 13.08 28.62 12.64 28.77 12.26L28.48 12.26C27.81 12.26 27.21 13.16 27.21 13.16L27.36 12.34L25.87 12.34L24.91 18.29L26.62 18.29Z" fill="#FFFFFF" fill-opacity="1.000000" fill-rule="nonzero"/>
	<path id="Vector" d="M36.14 12.12C35.09 12.12 34.28 12.41 34.28 12.41L34.05 13.75C34.05 13.75 34.72 13.45 35.76 13.45C36.28 13.45 36.73 13.53 36.73 13.97C36.73 14.27 36.66 14.35 36.66 14.35L35.99 14.35C34.65 14.35 33.24 14.87 33.24 16.65C33.24 18.06 34.13 18.36 34.72 18.36C35.76 18.36 36.28 17.69 36.36 17.69L36.28 18.29L37.7 18.29L38.29 14.05C38.29 12.19 36.66 12.12 36.14 12.12ZM36.51 15.54C36.51 15.76 36.36 17.02 35.47 17.02C35.02 17.02 34.87 16.65 34.87 16.43C34.87 16.06 35.09 15.54 36.28 15.54C36.43 15.54 36.43 15.54 36.51 15.54Z" fill="#FFFFFF" fill-opacity="1.000000" fill-rule="nonzero"/>
	<path id="Vector" d="M39.48 18.29C39.93 15.76 40 13.68 41.12 14.05C41.27 13.08 41.49 12.64 41.64 12.26L41.34 12.26C40.67 12.26 40.08 13.16 40.08 13.16L40.23 12.34L38.74 12.34L37.77 18.29L39.48 18.29Z" fill="#FFFFFF" fill-opacity="1.000000" fill-rule="nonzero"/>
</svg>
